solid Onshape
  facet normal -0.810229 0.13283 0.570864
    outer loop
      vertex -0.0595324 0.00429941 0.27
      vertex -0.0598828 0.00216238 0.27
      vertex -0.04 0 0.298723
    endloop
  endfacet
  facet normal -0.791117 0.219653 0.570864
    outer loop
      vertex -0.0595324 0.00429941 0.27
      vertex -0.04 0 0.298723
      vertex -0.0589531 0.00638603 0.27
    endloop
  endfacet
  facet normal -0.762732 0.303899 0.570864
    outer loop
      vertex -0.0581515 0.00839778 0.27
      vertex -0.0589531 0.00638603 0.27
      vertex -0.04 0 0.298723
    endloop
  endfacet
  facet normal -0.725402 0.384585 0.570864
    outer loop
      vertex -0.0571371 0.0103111 0.27
      vertex -0.0581515 0.00839778 0.27
      vertex -0.04 0 0.298723
    endloop
  endfacet
  facet normal -0.679569 0.46076 0.570864
    outer loop
      vertex -0.0559219 0.0121035 0.27
      vertex -0.0571371 0.0103111 0.27
      vertex -0.04 0 0.298723
    endloop
  endfacet
  facet normal -0.625769 0.531533 0.570864
    outer loop
      vertex -0.0545199 0.013754 0.27
      vertex -0.0559219 0.0121035 0.27
      vertex -0.04 0 0.298723
    endloop
  endfacet
  facet normal -0.564632 0.596075 0.570864
    outer loop
      vertex -0.0529477 0.0152432 0.27
      vertex -0.0545199 0.013754 0.27
      vertex -0.04 0 0.298723
    endloop
  endfacet
  facet normal -0.496875 0.653628 0.570864
    outer loop
      vertex -0.0512237 0.0165538 0.27
      vertex -0.0529477 0.0152432 0.27
      vertex -0.04 0 0.298723
    endloop
  endfacet
  facet normal -0.423293 0.703518 0.570864
    outer loop
      vertex -0.0493682 0.0176702 0.27
      vertex -0.0512237 0.0165538 0.27
      vertex -0.04 0 0.298723
    endloop
  endfacet
  facet normal -0.344748 0.74516 0.570864
    outer loop
      vertex -0.0474028 0.0185795 0.27
      vertex -0.0493682 0.0176702 0.27
      vertex -0.04 0 0.298723
    endloop
  endfacet
  facet normal -0.26216 0.778066 0.570864
    outer loop
      vertex -0.0453506 0.019271 0.27
      vertex -0.0474028 0.0185795 0.27
      vertex -0.04 0 0.298723
    endloop
  endfacet
  facet normal -0.176501 0.801849 0.570864
    outer loop
      vertex -0.0432356 0.0197365 0.27
      vertex -0.0453506 0.019271 0.27
      vertex -0.04 0 0.298723
    endloop
  endfacet
  facet normal -0.0887706 0.816232 0.570864
    outer loop
      vertex -0.0410828 0.0199707 0.27
      vertex -0.0432356 0.0197365 0.27
      vertex -0.04 0 0.298723
    endloop
  endfacet
  facet normal 0 0.821045 0.570864
    outer loop
      vertex -0.0389172 0.0199707 0.27
      vertex -0.0410828 0.0199707 0.27
      vertex -0.04 0 0.298723
    endloop
  endfacet
  facet normal 0.0887708 0.816232 0.570864
    outer loop
      vertex -0.0367644 0.0197365 0.27
      vertex -0.0389172 0.0199707 0.27
      vertex -0.04 0 0.298723
    endloop
  endfacet
  facet normal 0.1765 0.801849 0.570864
    outer loop
      vertex -0.0346494 0.019271 0.27
      vertex -0.0367644 0.0197365 0.27
      vertex -0.04 0 0.298723
    endloop
  endfacet
  facet normal 0.26216 0.778066 0.570864
    outer loop
      vertex -0.0325972 0.0185795 0.27
      vertex -0.0346494 0.019271 0.27
      vertex -0.04 0 0.298723
    endloop
  endfacet
  facet normal 0.344748 0.74516 0.570864
    outer loop
      vertex -0.0306318 0.0176702 0.27
      vertex -0.0325972 0.0185795 0.27
      vertex -0.04 0 0.298723
    endloop
  endfacet
  facet normal 0.423292 0.703518 0.570864
    outer loop
      vertex -0.0287763 0.0165538 0.27
      vertex -0.0306318 0.0176702 0.27
      vertex -0.04 0 0.298723
    endloop
  endfacet
  facet normal 0.496875 0.653628 0.570864
    outer loop
      vertex -0.0270523 0.0152432 0.27
      vertex -0.0287763 0.0165538 0.27
      vertex -0.04 0 0.298723
    endloop
  endfacet
  facet normal 0.564632 0.596075 0.570864
    outer loop
      vertex -0.0254801 0.013754 0.27
      vertex -0.0270523 0.0152432 0.27
      vertex -0.04 0 0.298723
    endloop
  endfacet
  facet normal 0.625769 0.531533 0.570864
    outer loop
      vertex -0.0240781 0.0121035 0.27
      vertex -0.0254801 0.013754 0.27
      vertex -0.04 0 0.298723
    endloop
  endfacet
  facet normal 0.67957 0.460759 0.570864
    outer loop
      vertex -0.0228629 0.0103111 0.27
      vertex -0.0240781 0.0121035 0.27
      vertex -0.04 0 0.298723
    endloop
  endfacet
  facet normal 0.725403 0.384584 0.570864
    outer loop
      vertex -0.0218485 0.00839778 0.27
      vertex -0.0228629 0.0103111 0.27
      vertex -0.04 0 0.298723
    endloop
  endfacet
  facet normal 0.762731 0.3039 0.570864
    outer loop
      vertex -0.0210469 0.00638603 0.27
      vertex -0.0218485 0.00839778 0.27
      vertex -0.04 0 0.298723
    endloop
  endfacet
  facet normal 0.791118 0.219653 0.570864
    outer loop
      vertex -0.0204676 0.00429941 0.27
      vertex -0.0210469 0.00638603 0.27
      vertex -0.04 0 0.298723
    endloop
  endfacet
  facet normal 0.810229 0.13283 0.570864
    outer loop
      vertex -0.0201172 0.00216238 0.27
      vertex -0.0204676 0.00429941 0.27
      vertex -0.04 0 0.298723
    endloop
  endfacet
  facet normal 0.81984 0.0444503 0.570864
    outer loop
      vertex -0.02 -1.53143e-17 0.27
      vertex -0.0201172 0.00216238 0.27
      vertex -0.04 0 0.298723
    endloop
  endfacet
  facet normal 0.81984 -0.0444503 0.570864
    outer loop
      vertex -0.0201172 -0.00216238 0.27
      vertex -0.02 -1.53143e-17 0.27
      vertex -0.04 0 0.298723
    endloop
  endfacet
  facet normal 0.810229 -0.13283 0.570864
    outer loop
      vertex -0.0204676 -0.00429941 0.27
      vertex -0.0201172 -0.00216238 0.27
      vertex -0.04 0 0.298723
    endloop
  endfacet
  facet normal 0.791118 -0.219653 0.570864
    outer loop
      vertex -0.0210469 -0.00638603 0.27
      vertex -0.0204676 -0.00429941 0.27
      vertex -0.04 0 0.298723
    endloop
  endfacet
  facet normal 0.762731 -0.3039 0.570864
    outer loop
      vertex -0.0218485 -0.00839778 0.27
      vertex -0.0210469 -0.00638603 0.27
      vertex -0.04 0 0.298723
    endloop
  endfacet
  facet normal 0.725403 -0.384584 0.570864
    outer loop
      vertex -0.0228629 -0.0103111 0.27
      vertex -0.0218485 -0.00839778 0.27
      vertex -0.04 0 0.298723
    endloop
  endfacet
  facet normal 0.67957 -0.460759 0.570864
    outer loop
      vertex -0.0240781 -0.0121035 0.27
      vertex -0.0228629 -0.0103111 0.27
      vertex -0.04 0 0.298723
    endloop
  endfacet
  facet normal 0.625769 -0.531533 0.570864
    outer loop
      vertex -0.0254801 -0.013754 0.27
      vertex -0.0240781 -0.0121035 0.27
      vertex -0.04 0 0.298723
    endloop
  endfacet
  facet normal 0.564632 -0.596075 0.570864
    outer loop
      vertex -0.0270523 -0.0152432 0.27
      vertex -0.0254801 -0.013754 0.27
      vertex -0.04 0 0.298723
    endloop
  endfacet
  facet normal 0.496875 -0.653628 0.570864
    outer loop
      vertex -0.0287763 -0.0165538 0.27
      vertex -0.0270523 -0.0152432 0.27
      vertex -0.04 0 0.298723
    endloop
  endfacet
  facet normal 0.423292 -0.703518 0.570864
    outer loop
      vertex -0.0306318 -0.0176702 0.27
      vertex -0.0287763 -0.0165538 0.27
      vertex -0.04 0 0.298723
    endloop
  endfacet
  facet normal 0.344748 -0.74516 0.570864
    outer loop
      vertex -0.0325972 -0.0185795 0.27
      vertex -0.0306318 -0.0176702 0.27
      vertex -0.04 0 0.298723
    endloop
  endfacet
  facet normal 0.26216 -0.778066 0.570864
    outer loop
      vertex -0.0346494 -0.019271 0.27
      vertex -0.0325972 -0.0185795 0.27
      vertex -0.04 0 0.298723
    endloop
  endfacet
  facet normal 0.1765 -0.801849 0.570864
    outer loop
      vertex -0.0367644 -0.0197365 0.27
      vertex -0.0346494 -0.019271 0.27
      vertex -0.04 0 0.298723
    endloop
  endfacet
  facet normal 0.0887708 -0.816232 0.570864
    outer loop
      vertex -0.0389172 -0.0199707 0.27
      vertex -0.0367644 -0.0197365 0.27
      vertex -0.04 0 0.298723
    endloop
  endfacet
  facet normal 0 -0.821045 0.570864
    outer loop
      vertex -0.0410828 -0.0199707 0.27
      vertex -0.0389172 -0.0199707 0.27
      vertex -0.04 0 0.298723
    endloop
  endfacet
  facet normal -0.0887706 -0.816232 0.570864
    outer loop
      vertex -0.0432356 -0.0197365 0.27
      vertex -0.0410828 -0.0199707 0.27
      vertex -0.04 0 0.298723
    endloop
  endfacet
  facet normal -0.176501 -0.801849 0.570864
    outer loop
      vertex -0.0453506 -0.019271 0.27
      vertex -0.0432356 -0.0197365 0.27
      vertex -0.04 0 0.298723
    endloop
  endfacet
  facet normal -0.26216 -0.778066 0.570864
    outer loop
      vertex -0.0474028 -0.0185795 0.27
      vertex -0.0453506 -0.019271 0.27
      vertex -0.04 0 0.298723
    endloop
  endfacet
  facet normal -0.344748 -0.74516 0.570864
    outer loop
      vertex -0.0493682 -0.0176702 0.27
      vertex -0.0474028 -0.0185795 0.27
      vertex -0.04 0 0.298723
    endloop
  endfacet
  facet normal -0.423293 -0.703518 0.570864
    outer loop
      vertex -0.0512237 -0.0165538 0.27
      vertex -0.0493682 -0.0176702 0.27
      vertex -0.04 0 0.298723
    endloop
  endfacet
  facet normal -0.496875 -0.653628 0.570864
    outer loop
      vertex -0.0529477 -0.0152432 0.27
      vertex -0.0512237 -0.0165538 0.27
      vertex -0.04 0 0.298723
    endloop
  endfacet
  facet normal -0.564632 -0.596075 0.570864
    outer loop
      vertex -0.0545199 -0.013754 0.27
      vertex -0.0529477 -0.0152432 0.27
      vertex -0.04 0 0.298723
    endloop
  endfacet
  facet normal -0.625769 -0.531533 0.570864
    outer loop
      vertex -0.0559219 -0.0121035 0.27
      vertex -0.0545199 -0.013754 0.27
      vertex -0.04 0 0.298723
    endloop
  endfacet
  facet normal -0.679569 -0.46076 0.570864
    outer loop
      vertex -0.0571371 -0.0103111 0.27
      vertex -0.0559219 -0.0121035 0.27
      vertex -0.04 0 0.298723
    endloop
  endfacet
  facet normal -0.725402 -0.384585 0.570864
    outer loop
      vertex -0.0581515 -0.00839778 0.27
      vertex -0.0571371 -0.0103111 0.27
      vertex -0.04 0 0.298723
    endloop
  endfacet
  facet normal -0.762732 -0.303899 0.570864
    outer loop
      vertex -0.0589531 -0.00638603 0.27
      vertex -0.0581515 -0.00839778 0.27
      vertex -0.04 0 0.298723
    endloop
  endfacet
  facet normal -0.791117 -0.219653 0.570864
    outer loop
      vertex -0.0595324 -0.00429941 0.27
      vertex -0.0589531 -0.00638603 0.27
      vertex -0.04 0 0.298723
    endloop
  endfacet
  facet normal -0.810229 -0.13283 0.570864
    outer loop
      vertex -0.0598828 -0.00216238 0.27
      vertex -0.0595324 -0.00429941 0.27
      vertex -0.04 0 0.298723
    endloop
  endfacet
  facet normal -0.819841 -0.0444496 0.570864
    outer loop
      vertex -0.06 0 0.27
      vertex -0.0598828 -0.00216238 0.27
      vertex -0.04 0 0.298723
    endloop
  endfacet
  facet normal -0.819841 0.0444496 0.570864
    outer loop
      vertex -0.0598828 0.00216238 0.27
      vertex -0.06 0 0.27
      vertex -0.04 0 0.298723
    endloop
  endfacet
  facet normal 0 0 -1
    outer loop
      vertex -0.06 0 0.25
      vertex -0.0598828 0.00216238 0.25
      vertex -0.04 0 0.25
    endloop
  endfacet
  facet normal 0 0 -1
    outer loop
      vertex -0.0589531 -0.00638603 0.25
      vertex -0.0595324 -0.00429941 0.25
      vertex -0.04 0 0.25
    endloop
  endfacet
  facet normal 0 0 -1
    outer loop
      vertex -0.0595324 -0.00429941 0.25
      vertex -0.0598828 -0.00216238 0.25
      vertex -0.04 0 0.25
    endloop
  endfacet
  facet normal 0 0 -1
    outer loop
      vertex -0.04 0 0.25
      vertex -0.0598828 -0.00216238 0.25
      vertex -0.06 0 0.25
    endloop
  endfacet
  facet normal 0 0 -1
    outer loop
      vertex -0.0559219 -0.0121035 0.25
      vertex -0.0571371 -0.0103111 0.25
      vertex -0.04 0 0.25
    endloop
  endfacet
  facet normal 0 0 -1
    outer loop
      vertex -0.0571371 -0.0103111 0.25
      vertex -0.0581515 -0.00839778 0.25
      vertex -0.04 0 0.25
    endloop
  endfacet
  facet normal 0 0 -1
    outer loop
      vertex -0.04 0 0.25
      vertex -0.0581515 -0.00839778 0.25
      vertex -0.0589531 -0.00638603 0.25
    endloop
  endfacet
  facet normal 0 0 -1
    outer loop
      vertex -0.0512237 -0.0165538 0.25
      vertex -0.0529477 -0.0152432 0.25
      vertex -0.04 0 0.25
    endloop
  endfacet
  facet normal 0 0 -1
    outer loop
      vertex -0.0529477 -0.0152432 0.25
      vertex -0.0545199 -0.013754 0.25
      vertex -0.04 0 0.25
    endloop
  endfacet
  facet normal 0 0 -1
    outer loop
      vertex -0.04 0 0.25
      vertex -0.0545199 -0.013754 0.25
      vertex -0.0559219 -0.0121035 0.25
    endloop
  endfacet
  facet normal 0 0 -1
    outer loop
      vertex -0.0453506 -0.019271 0.25
      vertex -0.0474028 -0.0185795 0.25
      vertex -0.04 0 0.25
    endloop
  endfacet
  facet normal 0 0 -1
    outer loop
      vertex -0.0474028 -0.0185795 0.25
      vertex -0.0493682 -0.0176702 0.25
      vertex -0.04 0 0.25
    endloop
  endfacet
  facet normal 0 0 -1
    outer loop
      vertex -0.04 0 0.25
      vertex -0.0493682 -0.0176702 0.25
      vertex -0.0512237 -0.0165538 0.25
    endloop
  endfacet
  facet normal 0 0 -1
    outer loop
      vertex -0.0389172 -0.0199707 0.25
      vertex -0.0410828 -0.0199707 0.25
      vertex -0.04 0 0.25
    endloop
  endfacet
  facet normal 0 0 -1
    outer loop
      vertex -0.0410828 -0.0199707 0.25
      vertex -0.0432356 -0.0197365 0.25
      vertex -0.04 0 0.25
    endloop
  endfacet
  facet normal 0 0 -1
    outer loop
      vertex -0.04 0 0.25
      vertex -0.0432356 -0.0197365 0.25
      vertex -0.0453506 -0.019271 0.25
    endloop
  endfacet
  facet normal 0 0 -1
    outer loop
      vertex -0.0325972 -0.0185795 0.25
      vertex -0.0346494 -0.019271 0.25
      vertex -0.04 0 0.25
    endloop
  endfacet
  facet normal 0 0 -1
    outer loop
      vertex -0.0346494 -0.019271 0.25
      vertex -0.0367644 -0.0197365 0.25
      vertex -0.04 0 0.25
    endloop
  endfacet
  facet normal 0 0 -1
    outer loop
      vertex -0.04 0 0.25
      vertex -0.0367644 -0.0197365 0.25
      vertex -0.0389172 -0.0199707 0.25
    endloop
  endfacet
  facet normal 0 0 -1
    outer loop
      vertex -0.0270523 -0.0152432 0.25
      vertex -0.0287763 -0.0165538 0.25
      vertex -0.04 0 0.25
    endloop
  endfacet
  facet normal 0 0 -1
    outer loop
      vertex -0.0287763 -0.0165538 0.25
      vertex -0.0306318 -0.0176702 0.25
      vertex -0.04 0 0.25
    endloop
  endfacet
  facet normal 0 0 -1
    outer loop
      vertex -0.04 0 0.25
      vertex -0.0306318 -0.0176702 0.25
      vertex -0.0325972 -0.0185795 0.25
    endloop
  endfacet
  facet normal 0 0 -1
    outer loop
      vertex -0.0228629 -0.0103111 0.25
      vertex -0.0240781 -0.0121035 0.25
      vertex -0.04 0 0.25
    endloop
  endfacet
  facet normal 0 0 -1
    outer loop
      vertex -0.0240781 -0.0121035 0.25
      vertex -0.0254801 -0.013754 0.25
      vertex -0.04 0 0.25
    endloop
  endfacet
  facet normal 0 0 -1
    outer loop
      vertex -0.04 0 0.25
      vertex -0.0254801 -0.013754 0.25
      vertex -0.0270523 -0.0152432 0.25
    endloop
  endfacet
  facet normal 0 0 -1
    outer loop
      vertex -0.0204676 -0.00429941 0.25
      vertex -0.0210469 -0.00638603 0.25
      vertex -0.04 0 0.25
    endloop
  endfacet
  facet normal 0 0 -1
    outer loop
      vertex -0.0210469 -0.00638603 0.25
      vertex -0.0218485 -0.00839778 0.25
      vertex -0.04 0 0.25
    endloop
  endfacet
  facet normal 0 0 -1
    outer loop
      vertex -0.04 0 0.25
      vertex -0.0218485 -0.00839778 0.25
      vertex -0.0228629 -0.0103111 0.25
    endloop
  endfacet
  facet normal 0 0 -1
    outer loop
      vertex -0.0201172 0.00216238 0.25
      vertex -0.02 2.44929e-18 0.25
      vertex -0.04 0 0.25
    endloop
  endfacet
  facet normal 0 0 -1
    outer loop
      vertex -0.02 2.44929e-18 0.25
      vertex -0.0201172 -0.00216238 0.25
      vertex -0.04 0 0.25
    endloop
  endfacet
  facet normal 0 0 -1
    outer loop
      vertex -0.04 0 0.25
      vertex -0.0201172 -0.00216238 0.25
      vertex -0.0204676 -0.00429941 0.25
    endloop
  endfacet
  facet normal 0 0 -1
    outer loop
      vertex -0.0218485 0.00839778 0.25
      vertex -0.0210469 0.00638603 0.25
      vertex -0.04 0 0.25
    endloop
  endfacet
  facet normal 0 0 -1
    outer loop
      vertex -0.0210469 0.00638603 0.25
      vertex -0.0204676 0.00429941 0.25
      vertex -0.04 0 0.25
    endloop
  endfacet
  facet normal 0 0 -1
    outer loop
      vertex -0.04 0 0.25
      vertex -0.0204676 0.00429941 0.25
      vertex -0.0201172 0.00216238 0.25
    endloop
  endfacet
  facet normal 0 0 -1
    outer loop
      vertex -0.0254801 0.013754 0.25
      vertex -0.0240781 0.0121035 0.25
      vertex -0.04 0 0.25
    endloop
  endfacet
  facet normal 0 0 -1
    outer loop
      vertex -0.0240781 0.0121035 0.25
      vertex -0.0228629 0.0103111 0.25
      vertex -0.04 0 0.25
    endloop
  endfacet
  facet normal 0 0 -1
    outer loop
      vertex -0.04 0 0.25
      vertex -0.0228629 0.0103111 0.25
      vertex -0.0218485 0.00839778 0.25
    endloop
  endfacet
  facet normal 0 0 -1
    outer loop
      vertex -0.0306318 0.0176702 0.25
      vertex -0.0287763 0.0165538 0.25
      vertex -0.04 0 0.25
    endloop
  endfacet
  facet normal 0 0 -1
    outer loop
      vertex -0.0287763 0.0165538 0.25
      vertex -0.0270523 0.0152432 0.25
      vertex -0.04 0 0.25
    endloop
  endfacet
  facet normal 0 0 -1
    outer loop
      vertex -0.04 0 0.25
      vertex -0.0270523 0.0152432 0.25
      vertex -0.0254801 0.013754 0.25
    endloop
  endfacet
  facet normal 0 0 -1
    outer loop
      vertex -0.0367644 0.0197365 0.25
      vertex -0.0346494 0.019271 0.25
      vertex -0.04 0 0.25
    endloop
  endfacet
  facet normal 0 0 -1
    outer loop
      vertex -0.0346494 0.019271 0.25
      vertex -0.0325972 0.0185795 0.25
      vertex -0.04 0 0.25
    endloop
  endfacet
  facet normal 0 0 -1
    outer loop
      vertex -0.04 0 0.25
      vertex -0.0325972 0.0185795 0.25
      vertex -0.0306318 0.0176702 0.25
    endloop
  endfacet
  facet normal 0 0 -1
    outer loop
      vertex -0.0432356 0.0197365 0.25
      vertex -0.0410828 0.0199707 0.25
      vertex -0.04 0 0.25
    endloop
  endfacet
  facet normal 0 0 -1
    outer loop
      vertex -0.0410828 0.0199707 0.25
      vertex -0.0389172 0.0199707 0.25
      vertex -0.04 0 0.25
    endloop
  endfacet
  facet normal 0 0 -1
    outer loop
      vertex -0.04 0 0.25
      vertex -0.0389172 0.0199707 0.25
      vertex -0.0367644 0.0197365 0.25
    endloop
  endfacet
  facet normal 0 0 -1
    outer loop
      vertex -0.0493682 0.0176702 0.25
      vertex -0.0474028 0.0185795 0.25
      vertex -0.04 0 0.25
    endloop
  endfacet
  facet normal 0 0 -1
    outer loop
      vertex -0.0474028 0.0185795 0.25
      vertex -0.0453506 0.019271 0.25
      vertex -0.04 0 0.25
    endloop
  endfacet
  facet normal 0 0 -1
    outer loop
      vertex -0.04 0 0.25
      vertex -0.0453506 0.019271 0.25
      vertex -0.0432356 0.0197365 0.25
    endloop
  endfacet
  facet normal 0 0 -1
    outer loop
      vertex -0.0545199 0.013754 0.25
      vertex -0.0529477 0.0152432 0.25
      vertex -0.04 0 0.25
    endloop
  endfacet
  facet normal 0 0 -1
    outer loop
      vertex -0.0529477 0.0152432 0.25
      vertex -0.0512237 0.0165538 0.25
      vertex -0.04 0 0.25
    endloop
  endfacet
  facet normal 0 0 -1
    outer loop
      vertex -0.04 0 0.25
      vertex -0.0512237 0.0165538 0.25
      vertex -0.0493682 0.0176702 0.25
    endloop
  endfacet
  facet normal 0 0 -1
    outer loop
      vertex -0.0581515 0.00839778 0.25
      vertex -0.0571371 0.0103111 0.25
      vertex -0.04 0 0.25
    endloop
  endfacet
  facet normal 0 0 -1
    outer loop
      vertex -0.0571371 0.0103111 0.25
      vertex -0.0559219 0.0121035 0.25
      vertex -0.04 0 0.25
    endloop
  endfacet
  facet normal 0 0 -1
    outer loop
      vertex -0.04 0 0.25
      vertex -0.0559219 0.0121035 0.25
      vertex -0.0545199 0.013754 0.25
    endloop
  endfacet
  facet normal 0 0 -1
    outer loop
      vertex -0.0598828 0.00216238 0.25
      vertex -0.0595324 0.00429941 0.25
      vertex -0.04 0 0.25
    endloop
  endfacet
  facet normal 0 0 -1
    outer loop
      vertex -0.0595324 0.00429941 0.25
      vertex -0.0589531 0.00638603 0.25
      vertex -0.04 0 0.25
    endloop
  endfacet
  facet normal 0 0 -1
    outer loop
      vertex -0.04 0 0.25
      vertex -0.0589531 0.00638603 0.25
      vertex -0.0581515 0.00839778 0.25
    endloop
  endfacet
  facet normal -0.998533 0.0541379 0
    outer loop
      vertex -0.06 0 0.25
      vertex -0.0598828 0.00216238 0.27
      vertex -0.0598828 0.00216238 0.25
    endloop
  endfacet
  facet normal -0.986826 0.161782 0
    outer loop
      vertex -0.0598828 0.00216238 0.27
      vertex -0.0595324 0.00429941 0.27
      vertex -0.0598828 0.00216238 0.25
    endloop
  endfacet
  facet normal -0.986826 0.161782 0
    outer loop
      vertex -0.0598828 0.00216238 0.25
      vertex -0.0595324 0.00429941 0.27
      vertex -0.0595324 0.00429941 0.25
    endloop
  endfacet
  facet normal -0.96355 0.267529 0
    outer loop
      vertex -0.0595324 0.00429941 0.27
      vertex -0.0589531 0.00638603 0.27
      vertex -0.0595324 0.00429941 0.25
    endloop
  endfacet
  facet normal -0.96355 0.267529 0
    outer loop
      vertex -0.0595324 0.00429941 0.25
      vertex -0.0589531 0.00638603 0.27
      vertex -0.0589531 0.00638603 0.25
    endloop
  endfacet
  facet normal -0.928977 0.370137 0
    outer loop
      vertex -0.0589531 0.00638603 0.27
      vertex -0.0581515 0.00839778 0.27
      vertex -0.0589531 0.00638603 0.25
    endloop
  endfacet
  facet normal -0.928977 0.370137 0
    outer loop
      vertex -0.0589531 0.00638603 0.25
      vertex -0.0581515 0.00839778 0.27
      vertex -0.0581515 0.00839778 0.25
    endloop
  endfacet
  facet normal -0.883512 0.468409 0
    outer loop
      vertex -0.0581515 0.00839778 0.27
      vertex -0.0571371 0.0103111 0.27
      vertex -0.0581515 0.00839778 0.25
    endloop
  endfacet
  facet normal -0.883512 0.468409 0
    outer loop
      vertex -0.0581515 0.00839778 0.25
      vertex -0.0571371 0.0103111 0.27
      vertex -0.0571371 0.0103111 0.25
    endloop
  endfacet
  facet normal -0.827689 0.561187 0
    outer loop
      vertex -0.0571371 0.0103111 0.27
      vertex -0.0559219 0.0121035 0.27
      vertex -0.0571371 0.0103111 0.25
    endloop
  endfacet
  facet normal -0.827689 0.561187 0
    outer loop
      vertex -0.0571371 0.0103111 0.25
      vertex -0.0559219 0.0121035 0.27
      vertex -0.0559219 0.0121035 0.25
    endloop
  endfacet
  facet normal -0.762162 0.647386 0
    outer loop
      vertex -0.0559219 0.0121035 0.27
      vertex -0.0545199 0.013754 0.27
      vertex -0.0559219 0.0121035 0.25
    endloop
  endfacet
  facet normal -0.762162 0.647386 0
    outer loop
      vertex -0.0559219 0.0121035 0.25
      vertex -0.0545199 0.013754 0.27
      vertex -0.0545199 0.013754 0.25
    endloop
  endfacet
  facet normal -0.6877 0.725995 0
    outer loop
      vertex -0.0545199 0.013754 0.27
      vertex -0.0529477 0.0152432 0.27
      vertex -0.0545199 0.013754 0.25
    endloop
  endfacet
  facet normal -0.6877 0.725995 0
    outer loop
      vertex -0.0545199 0.013754 0.25
      vertex -0.0529477 0.0152432 0.27
      vertex -0.0529477 0.0152432 0.25
    endloop
  endfacet
  facet normal -0.605174 0.796093 0
    outer loop
      vertex -0.0529477 0.0152432 0.27
      vertex -0.0512237 0.0165538 0.27
      vertex -0.0529477 0.0152432 0.25
    endloop
  endfacet
  facet normal -0.605174 0.796093 0
    outer loop
      vertex -0.0529477 0.0152432 0.25
      vertex -0.0512237 0.0165538 0.27
      vertex -0.0512237 0.0165538 0.25
    endloop
  endfacet
  facet normal -0.515554 0.856857 0
    outer loop
      vertex -0.0512237 0.0165538 0.27
      vertex -0.0493682 0.0176702 0.27
      vertex -0.0512237 0.0165538 0.25
    endloop
  endfacet
  facet normal -0.515554 0.856857 0
    outer loop
      vertex -0.0512237 0.0165538 0.25
      vertex -0.0493682 0.0176702 0.27
      vertex -0.0493682 0.0176702 0.25
    endloop
  endfacet
  facet normal -0.419889 0.907575 0
    outer loop
      vertex -0.0493682 0.0176702 0.27
      vertex -0.0474028 0.0185795 0.27
      vertex -0.0493682 0.0176702 0.25
    endloop
  endfacet
  facet normal -0.419889 0.907575 0
    outer loop
      vertex -0.0493682 0.0176702 0.25
      vertex -0.0474028 0.0185795 0.27
      vertex -0.0474028 0.0185795 0.25
    endloop
  endfacet
  facet normal -0.319301 0.947653 0
    outer loop
      vertex -0.0474028 0.0185795 0.27
      vertex -0.0453506 0.019271 0.27
      vertex -0.0474028 0.0185795 0.25
    endloop
  endfacet
  facet normal -0.319301 0.947653 0
    outer loop
      vertex -0.0474028 0.0185795 0.25
      vertex -0.0453506 0.019271 0.27
      vertex -0.0453506 0.019271 0.25
    endloop
  endfacet
  facet normal -0.214971 0.97662 0
    outer loop
      vertex -0.0453506 0.019271 0.27
      vertex -0.0432356 0.0197365 0.27
      vertex -0.0453506 0.019271 0.25
    endloop
  endfacet
  facet normal -0.214971 0.97662 0
    outer loop
      vertex -0.0453506 0.019271 0.25
      vertex -0.0432356 0.0197365 0.27
      vertex -0.0432356 0.0197365 0.25
    endloop
  endfacet
  facet normal -0.108119 0.994138 0
    outer loop
      vertex -0.0432356 0.0197365 0.27
      vertex -0.0410828 0.0199707 0.27
      vertex -0.0432356 0.0197365 0.25
    endloop
  endfacet
  facet normal -0.108119 0.994138 0
    outer loop
      vertex -0.0432356 0.0197365 0.25
      vertex -0.0410828 0.0199707 0.27
      vertex -0.0410828 0.0199707 0.25
    endloop
  endfacet
  facet normal 0 1 0
    outer loop
      vertex -0.0410828 0.0199707 0.27
      vertex -0.0389172 0.0199707 0.27
      vertex -0.0410828 0.0199707 0.25
    endloop
  endfacet
  facet normal 0 1 0
    outer loop
      vertex -0.0410828 0.0199707 0.25
      vertex -0.0389172 0.0199707 0.27
      vertex -0.0389172 0.0199707 0.25
    endloop
  endfacet
  facet normal 0.108119 0.994138 0
    outer loop
      vertex -0.0389172 0.0199707 0.27
      vertex -0.0367644 0.0197365 0.27
      vertex -0.0389172 0.0199707 0.25
    endloop
  endfacet
  facet normal 0.108119 0.994138 0
    outer loop
      vertex -0.0389172 0.0199707 0.25
      vertex -0.0367644 0.0197365 0.27
      vertex -0.0367644 0.0197365 0.25
    endloop
  endfacet
  facet normal 0.21497 0.976621 0
    outer loop
      vertex -0.0367644 0.0197365 0.27
      vertex -0.0346494 0.019271 0.27
      vertex -0.0367644 0.0197365 0.25
    endloop
  endfacet
  facet normal 0.21497 0.976621 0
    outer loop
      vertex -0.0367644 0.0197365 0.25
      vertex -0.0346494 0.019271 0.27
      vertex -0.0346494 0.019271 0.25
    endloop
  endfacet
  facet normal 0.319301 0.947653 0
    outer loop
      vertex -0.0346494 0.019271 0.27
      vertex -0.0325972 0.0185795 0.27
      vertex -0.0346494 0.019271 0.25
    endloop
  endfacet
  facet normal 0.319301 0.947653 0
    outer loop
      vertex -0.0346494 0.019271 0.25
      vertex -0.0325972 0.0185795 0.27
      vertex -0.0325972 0.0185795 0.25
    endloop
  endfacet
  facet normal 0.41989 0.907575 0
    outer loop
      vertex -0.0325972 0.0185795 0.27
      vertex -0.0306318 0.0176702 0.27
      vertex -0.0325972 0.0185795 0.25
    endloop
  endfacet
  facet normal 0.41989 0.907575 0
    outer loop
      vertex -0.0325972 0.0185795 0.25
      vertex -0.0306318 0.0176702 0.27
      vertex -0.0306318 0.0176702 0.25
    endloop
  endfacet
  facet normal 0.515554 0.856857 0
    outer loop
      vertex -0.0306318 0.0176702 0.27
      vertex -0.0287763 0.0165538 0.27
      vertex -0.0306318 0.0176702 0.25
    endloop
  endfacet
  facet normal 0.515554 0.856857 0
    outer loop
      vertex -0.0306318 0.0176702 0.25
      vertex -0.0287763 0.0165538 0.27
      vertex -0.0287763 0.0165538 0.25
    endloop
  endfacet
  facet normal 0.605174 0.796093 0
    outer loop
      vertex -0.0287763 0.0165538 0.27
      vertex -0.0270523 0.0152432 0.27
      vertex -0.0287763 0.0165538 0.25
    endloop
  endfacet
  facet normal 0.605174 0.796093 0
    outer loop
      vertex -0.0287763 0.0165538 0.25
      vertex -0.0270523 0.0152432 0.27
      vertex -0.0270523 0.0152432 0.25
    endloop
  endfacet
  facet normal 0.6877 0.725995 0
    outer loop
      vertex -0.0270523 0.0152432 0.27
      vertex -0.0254801 0.013754 0.27
      vertex -0.0270523 0.0152432 0.25
    endloop
  endfacet
  facet normal 0.6877 0.725995 0
    outer loop
      vertex -0.0270523 0.0152432 0.25
      vertex -0.0254801 0.013754 0.27
      vertex -0.0254801 0.013754 0.25
    endloop
  endfacet
  facet normal 0.762162 0.647386 0
    outer loop
      vertex -0.0254801 0.013754 0.27
      vertex -0.0240781 0.0121035 0.27
      vertex -0.0254801 0.013754 0.25
    endloop
  endfacet
  facet normal 0.762162 0.647386 0
    outer loop
      vertex -0.0254801 0.013754 0.25
      vertex -0.0240781 0.0121035 0.27
      vertex -0.0240781 0.0121035 0.25
    endloop
  endfacet
  facet normal 0.827689 0.561187 0
    outer loop
      vertex -0.0240781 0.0121035 0.27
      vertex -0.0228629 0.0103111 0.27
      vertex -0.0240781 0.0121035 0.25
    endloop
  endfacet
  facet normal 0.827689 0.561187 0
    outer loop
      vertex -0.0240781 0.0121035 0.25
      vertex -0.0228629 0.0103111 0.27
      vertex -0.0228629 0.0103111 0.25
    endloop
  endfacet
  facet normal 0.883512 0.468408 0
    outer loop
      vertex -0.0228629 0.0103111 0.27
      vertex -0.0218485 0.00839778 0.27
      vertex -0.0228629 0.0103111 0.25
    endloop
  endfacet
  facet normal 0.883512 0.468408 0
    outer loop
      vertex -0.0228629 0.0103111 0.25
      vertex -0.0218485 0.00839778 0.27
      vertex -0.0218485 0.00839778 0.25
    endloop
  endfacet
  facet normal 0.928977 0.370138 0
    outer loop
      vertex -0.0218485 0.00839778 0.27
      vertex -0.0210469 0.00638603 0.27
      vertex -0.0218485 0.00839778 0.25
    endloop
  endfacet
  facet normal 0.928977 0.370138 0
    outer loop
      vertex -0.0218485 0.00839778 0.25
      vertex -0.0210469 0.00638603 0.27
      vertex -0.0210469 0.00638603 0.25
    endloop
  endfacet
  facet normal 0.96355 0.267528 0
    outer loop
      vertex -0.0210469 0.00638603 0.27
      vertex -0.0204676 0.00429941 0.27
      vertex -0.0210469 0.00638603 0.25
    endloop
  endfacet
  facet normal 0.96355 0.267528 0
    outer loop
      vertex -0.0210469 0.00638603 0.25
      vertex -0.0204676 0.00429941 0.27
      vertex -0.0204676 0.00429941 0.25
    endloop
  endfacet
  facet normal 0.986826 0.161782 0
    outer loop
      vertex -0.0204676 0.00429941 0.27
      vertex -0.0201172 0.00216238 0.27
      vertex -0.0204676 0.00429941 0.25
    endloop
  endfacet
  facet normal 0.986826 0.161782 0
    outer loop
      vertex -0.0204676 0.00429941 0.25
      vertex -0.0201172 0.00216238 0.27
      vertex -0.0201172 0.00216238 0.25
    endloop
  endfacet
  facet normal 0.998533 0.0541387 0
    outer loop
      vertex -0.0201172 0.00216238 0.27
      vertex -0.02 -1.53143e-17 0.27
      vertex -0.0201172 0.00216238 0.25
    endloop
  endfacet
  facet normal 0.998533 0.0541387 4.88923e-17
    outer loop
      vertex -0.0201172 0.00216238 0.25
      vertex -0.02 -1.53143e-17 0.27
      vertex -0.02 2.44929e-18 0.25
    endloop
  endfacet
  facet normal 0.998533 -0.0541387 -4.80848e-17
    outer loop
      vertex -0.02 -1.53143e-17 0.27
      vertex -0.0201172 -0.00216238 0.27
      vertex -0.02 2.44929e-18 0.25
    endloop
  endfacet
  facet normal 0.998533 -0.0541387 0
    outer loop
      vertex -0.02 2.44929e-18 0.25
      vertex -0.0201172 -0.00216238 0.27
      vertex -0.0201172 -0.00216238 0.25
    endloop
  endfacet
  facet normal 0.986826 -0.161782 0
    outer loop
      vertex -0.0201172 -0.00216238 0.27
      vertex -0.0204676 -0.00429941 0.27
      vertex -0.0201172 -0.00216238 0.25
    endloop
  endfacet
  facet normal 0.986826 -0.161782 0
    outer loop
      vertex -0.0201172 -0.00216238 0.25
      vertex -0.0204676 -0.00429941 0.27
      vertex -0.0204676 -0.00429941 0.25
    endloop
  endfacet
  facet normal 0.96355 -0.267528 0
    outer loop
      vertex -0.0204676 -0.00429941 0.27
      vertex -0.0210469 -0.00638603 0.27
      vertex -0.0204676 -0.00429941 0.25
    endloop
  endfacet
  facet normal 0.96355 -0.267528 0
    outer loop
      vertex -0.0204676 -0.00429941 0.25
      vertex -0.0210469 -0.00638603 0.27
      vertex -0.0210469 -0.00638603 0.25
    endloop
  endfacet
  facet normal 0.928977 -0.370138 0
    outer loop
      vertex -0.0210469 -0.00638603 0.27
      vertex -0.0218485 -0.00839778 0.27
      vertex -0.0210469 -0.00638603 0.25
    endloop
  endfacet
  facet normal 0.928977 -0.370138 0
    outer loop
      vertex -0.0210469 -0.00638603 0.25
      vertex -0.0218485 -0.00839778 0.27
      vertex -0.0218485 -0.00839778 0.25
    endloop
  endfacet
  facet normal 0.883512 -0.468408 0
    outer loop
      vertex -0.0218485 -0.00839778 0.27
      vertex -0.0228629 -0.0103111 0.27
      vertex -0.0218485 -0.00839778 0.25
    endloop
  endfacet
  facet normal 0.883512 -0.468408 0
    outer loop
      vertex -0.0218485 -0.00839778 0.25
      vertex -0.0228629 -0.0103111 0.27
      vertex -0.0228629 -0.0103111 0.25
    endloop
  endfacet
  facet normal 0.827689 -0.561187 0
    outer loop
      vertex -0.0228629 -0.0103111 0.27
      vertex -0.0240781 -0.0121035 0.27
      vertex -0.0228629 -0.0103111 0.25
    endloop
  endfacet
  facet normal 0.827689 -0.561187 0
    outer loop
      vertex -0.0228629 -0.0103111 0.25
      vertex -0.0240781 -0.0121035 0.27
      vertex -0.0240781 -0.0121035 0.25
    endloop
  endfacet
  facet normal 0.762162 -0.647386 0
    outer loop
      vertex -0.0240781 -0.0121035 0.27
      vertex -0.0254801 -0.013754 0.27
      vertex -0.0240781 -0.0121035 0.25
    endloop
  endfacet
  facet normal 0.762162 -0.647386 0
    outer loop
      vertex -0.0240781 -0.0121035 0.25
      vertex -0.0254801 -0.013754 0.27
      vertex -0.0254801 -0.013754 0.25
    endloop
  endfacet
  facet normal 0.6877 -0.725995 0
    outer loop
      vertex -0.0254801 -0.013754 0.27
      vertex -0.0270523 -0.0152432 0.27
      vertex -0.0254801 -0.013754 0.25
    endloop
  endfacet
  facet normal 0.6877 -0.725995 0
    outer loop
      vertex -0.0254801 -0.013754 0.25
      vertex -0.0270523 -0.0152432 0.27
      vertex -0.0270523 -0.0152432 0.25
    endloop
  endfacet
  facet normal 0.605174 -0.796093 0
    outer loop
      vertex -0.0270523 -0.0152432 0.27
      vertex -0.0287763 -0.0165538 0.27
      vertex -0.0270523 -0.0152432 0.25
    endloop
  endfacet
  facet normal 0.605174 -0.796093 0
    outer loop
      vertex -0.0270523 -0.0152432 0.25
      vertex -0.0287763 -0.0165538 0.27
      vertex -0.0287763 -0.0165538 0.25
    endloop
  endfacet
  facet normal 0.515554 -0.856857 0
    outer loop
      vertex -0.0287763 -0.0165538 0.27
      vertex -0.0306318 -0.0176702 0.27
      vertex -0.0287763 -0.0165538 0.25
    endloop
  endfacet
  facet normal 0.515554 -0.856857 0
    outer loop
      vertex -0.0287763 -0.0165538 0.25
      vertex -0.0306318 -0.0176702 0.27
      vertex -0.0306318 -0.0176702 0.25
    endloop
  endfacet
  facet normal 0.41989 -0.907575 0
    outer loop
      vertex -0.0306318 -0.0176702 0.27
      vertex -0.0325972 -0.0185795 0.27
      vertex -0.0306318 -0.0176702 0.25
    endloop
  endfacet
  facet normal 0.41989 -0.907575 0
    outer loop
      vertex -0.0306318 -0.0176702 0.25
      vertex -0.0325972 -0.0185795 0.27
      vertex -0.0325972 -0.0185795 0.25
    endloop
  endfacet
  facet normal 0.319301 -0.947653 0
    outer loop
      vertex -0.0325972 -0.0185795 0.27
      vertex -0.0346494 -0.019271 0.27
      vertex -0.0325972 -0.0185795 0.25
    endloop
  endfacet
  facet normal 0.319301 -0.947653 0
    outer loop
      vertex -0.0325972 -0.0185795 0.25
      vertex -0.0346494 -0.019271 0.27
      vertex -0.0346494 -0.019271 0.25
    endloop
  endfacet
  facet normal 0.21497 -0.976621 0
    outer loop
      vertex -0.0346494 -0.019271 0.27
      vertex -0.0367644 -0.0197365 0.27
      vertex -0.0346494 -0.019271 0.25
    endloop
  endfacet
  facet normal 0.21497 -0.976621 0
    outer loop
      vertex -0.0346494 -0.019271 0.25
      vertex -0.0367644 -0.0197365 0.27
      vertex -0.0367644 -0.0197365 0.25
    endloop
  endfacet
  facet normal 0.108119 -0.994138 0
    outer loop
      vertex -0.0367644 -0.0197365 0.27
      vertex -0.0389172 -0.0199707 0.27
      vertex -0.0367644 -0.0197365 0.25
    endloop
  endfacet
  facet normal 0.108119 -0.994138 0
    outer loop
      vertex -0.0367644 -0.0197365 0.25
      vertex -0.0389172 -0.0199707 0.27
      vertex -0.0389172 -0.0199707 0.25
    endloop
  endfacet
  facet normal 0 -1 0
    outer loop
      vertex -0.0389172 -0.0199707 0.27
      vertex -0.0410828 -0.0199707 0.27
      vertex -0.0389172 -0.0199707 0.25
    endloop
  endfacet
  facet normal 0 -1 0
    outer loop
      vertex -0.0389172 -0.0199707 0.25
      vertex -0.0410828 -0.0199707 0.27
      vertex -0.0410828 -0.0199707 0.25
    endloop
  endfacet
  facet normal -0.108119 -0.994138 0
    outer loop
      vertex -0.0410828 -0.0199707 0.27
      vertex -0.0432356 -0.0197365 0.27
      vertex -0.0410828 -0.0199707 0.25
    endloop
  endfacet
  facet normal -0.108119 -0.994138 0
    outer loop
      vertex -0.0410828 -0.0199707 0.25
      vertex -0.0432356 -0.0197365 0.27
      vertex -0.0432356 -0.0197365 0.25
    endloop
  endfacet
  facet normal -0.214971 -0.97662 0
    outer loop
      vertex -0.0432356 -0.0197365 0.27
      vertex -0.0453506 -0.019271 0.27
      vertex -0.0432356 -0.0197365 0.25
    endloop
  endfacet
  facet normal -0.214971 -0.97662 0
    outer loop
      vertex -0.0432356 -0.0197365 0.25
      vertex -0.0453506 -0.019271 0.27
      vertex -0.0453506 -0.019271 0.25
    endloop
  endfacet
  facet normal -0.319301 -0.947653 0
    outer loop
      vertex -0.0453506 -0.019271 0.27
      vertex -0.0474028 -0.0185795 0.27
      vertex -0.0453506 -0.019271 0.25
    endloop
  endfacet
  facet normal -0.319301 -0.947653 0
    outer loop
      vertex -0.0453506 -0.019271 0.25
      vertex -0.0474028 -0.0185795 0.27
      vertex -0.0474028 -0.0185795 0.25
    endloop
  endfacet
  facet normal -0.419889 -0.907575 0
    outer loop
      vertex -0.0474028 -0.0185795 0.27
      vertex -0.0493682 -0.0176702 0.27
      vertex -0.0474028 -0.0185795 0.25
    endloop
  endfacet
  facet normal -0.419889 -0.907575 0
    outer loop
      vertex -0.0474028 -0.0185795 0.25
      vertex -0.0493682 -0.0176702 0.27
      vertex -0.0493682 -0.0176702 0.25
    endloop
  endfacet
  facet normal -0.515554 -0.856857 0
    outer loop
      vertex -0.0493682 -0.0176702 0.27
      vertex -0.0512237 -0.0165538 0.27
      vertex -0.0493682 -0.0176702 0.25
    endloop
  endfacet
  facet normal -0.515554 -0.856857 0
    outer loop
      vertex -0.0493682 -0.0176702 0.25
      vertex -0.0512237 -0.0165538 0.27
      vertex -0.0512237 -0.0165538 0.25
    endloop
  endfacet
  facet normal -0.605174 -0.796093 0
    outer loop
      vertex -0.0512237 -0.0165538 0.27
      vertex -0.0529477 -0.0152432 0.27
      vertex -0.0512237 -0.0165538 0.25
    endloop
  endfacet
  facet normal -0.605174 -0.796093 0
    outer loop
      vertex -0.0512237 -0.0165538 0.25
      vertex -0.0529477 -0.0152432 0.27
      vertex -0.0529477 -0.0152432 0.25
    endloop
  endfacet
  facet normal -0.6877 -0.725995 0
    outer loop
      vertex -0.0529477 -0.0152432 0.27
      vertex -0.0545199 -0.013754 0.27
      vertex -0.0529477 -0.0152432 0.25
    endloop
  endfacet
  facet normal -0.6877 -0.725995 0
    outer loop
      vertex -0.0529477 -0.0152432 0.25
      vertex -0.0545199 -0.013754 0.27
      vertex -0.0545199 -0.013754 0.25
    endloop
  endfacet
  facet normal -0.762162 -0.647386 0
    outer loop
      vertex -0.0545199 -0.013754 0.27
      vertex -0.0559219 -0.0121035 0.27
      vertex -0.0545199 -0.013754 0.25
    endloop
  endfacet
  facet normal -0.762162 -0.647386 0
    outer loop
      vertex -0.0545199 -0.013754 0.25
      vertex -0.0559219 -0.0121035 0.27
      vertex -0.0559219 -0.0121035 0.25
    endloop
  endfacet
  facet normal -0.827689 -0.561187 0
    outer loop
      vertex -0.0559219 -0.0121035 0.27
      vertex -0.0571371 -0.0103111 0.27
      vertex -0.0559219 -0.0121035 0.25
    endloop
  endfacet
  facet normal -0.827689 -0.561187 0
    outer loop
      vertex -0.0559219 -0.0121035 0.25
      vertex -0.0571371 -0.0103111 0.27
      vertex -0.0571371 -0.0103111 0.25
    endloop
  endfacet
  facet normal -0.883512 -0.468409 0
    outer loop
      vertex -0.0571371 -0.0103111 0.27
      vertex -0.0581515 -0.00839778 0.27
      vertex -0.0571371 -0.0103111 0.25
    endloop
  endfacet
  facet normal -0.883512 -0.468409 0
    outer loop
      vertex -0.0571371 -0.0103111 0.25
      vertex -0.0581515 -0.00839778 0.27
      vertex -0.0581515 -0.00839778 0.25
    endloop
  endfacet
  facet normal -0.928977 -0.370137 0
    outer loop
      vertex -0.0581515 -0.00839778 0.27
      vertex -0.0589531 -0.00638603 0.27
      vertex -0.0581515 -0.00839778 0.25
    endloop
  endfacet
  facet normal -0.928977 -0.370137 0
    outer loop
      vertex -0.0581515 -0.00839778 0.25
      vertex -0.0589531 -0.00638603 0.27
      vertex -0.0589531 -0.00638603 0.25
    endloop
  endfacet
  facet normal -0.96355 -0.267529 0
    outer loop
      vertex -0.0589531 -0.00638603 0.27
      vertex -0.0595324 -0.00429941 0.27
      vertex -0.0589531 -0.00638603 0.25
    endloop
  endfacet
  facet normal -0.96355 -0.267529 0
    outer loop
      vertex -0.0589531 -0.00638603 0.25
      vertex -0.0595324 -0.00429941 0.27
      vertex -0.0595324 -0.00429941 0.25
    endloop
  endfacet
  facet normal -0.986826 -0.161782 0
    outer loop
      vertex -0.0595324 -0.00429941 0.27
      vertex -0.0598828 -0.00216238 0.27
      vertex -0.0595324 -0.00429941 0.25
    endloop
  endfacet
  facet normal -0.986826 -0.161782 0
    outer loop
      vertex -0.0595324 -0.00429941 0.25
      vertex -0.0598828 -0.00216238 0.27
      vertex -0.0598828 -0.00216238 0.25
    endloop
  endfacet
  facet normal -0.998533 -0.0541379 0
    outer loop
      vertex -0.0598828 -0.00216238 0.27
      vertex -0.06 0 0.27
      vertex -0.0598828 -0.00216238 0.25
    endloop
  endfacet
  facet normal -0.998533 -0.0541379 0
    outer loop
      vertex -0.0598828 -0.00216238 0.25
      vertex -0.06 0 0.27
      vertex -0.06 0 0.25
    endloop
  endfacet
  facet normal -0.998533 0.0541379 0
    outer loop
      vertex -0.06 0 0.27
      vertex -0.0598828 0.00216238 0.27
      vertex -0.06 0 0.25
    endloop
  endfacet
endsolid Onshape
